<!-- Created with Inkscape (http://www.inkscape.org/) -->
<svg xmlns:rdf="http://www.w3.org/1999/02/22-rdf-syntax-ns#" xmlns="http://www.w3.org/2000/svg" height="163.9" width="154.8" version="1.1" xmlns:cc="http://creativecommons.org/ns#" xmlns:dc="http://purl.org/dc/elements/1.1/">
 <metadata>
  <rdf:RDF>
   <cc:Work rdf:about="">
    <dc:format>image/svg+xml</dc:format>
    <dc:type rdf:resource="http://purl.org/dc/dcmitype/StillImage"/>
    <dc:title/>
   </cc:Work>
  </rdf:RDF>
 </metadata>
 <g transform="translate(-842.94657,-252.36218)">
  <path style="block-progression:tb;color:#000000;text-transform:none;text-indent:0;" fill="#FFF" d="m921.1,257.4c-4.837,0-9.734,5.561-9.621,10.26v45.54h19.24v-45.54c0.1499-6.209-4.783-10.26-9.621-10.26zm-34.31,25.65c-0.8948,0.1981-1.761,0.5234-2.565,0.9615-13.54,7.094-22.94,17.45-28.54,29.18h22.45c3.791-4.531,8.754-8.555,15.07-11.87,3.886-2.117,6.076-6.984,4.81-11.22-1.264-4.241-5.851-7.412-10.26-7.055-0.3212-0.0206-0.6414-0.0206-0.9616,0zm67.34,0c-3.805-0.4166-7.986,1.473-9.941,4.81-2.602,4.45-0.9256,10.87,3.528,13.47,6.134,3.54,10.92,7.538,14.75,11.87h23.09c-5.71-11.13-14.82-21.31-27.9-28.86-1.113-0.6506-2.259-1.144-3.528-1.283zm-91.07,99.09c12.41,17.04,32.49,29.18,57.72,29.18,25.32,0,45.75-12.16,58.36-29.18h-26.62c-8.394,6.001-19.08,9.621-31.75,9.621-12.27,0-22.59-3.713-30.79-9.621h-26.94z"/>
  <text style="letter-spacing:0px;word-spacing:0px;" font-weight="normal" xml:space="preserve" font-size="82.09523773px" font-stretch="normal" line-height="125%" font-variant="normal" y="373.32462" x="844.54431" font-family="Arial" font-style="normal" fill="#ffffff"><tspan font-size="71.83333588px" y="373.32462" x="844.54431" font-weight="bold">CAS</tspan></text>
 </g>
</svg>
